# xmcd
#
# Track frame offsets:
#	150
#	15029
#	29963
#	40905
#	56825
#	67752
#	82849
#	99926
#	110463
#	127227
#	141674
#	153584
#	171996
#	183768
#	198647
#	211522
#	226099
#	239963
#	251415
#	267555
#	282489
#	294779
#
# Disc length: 4110 seconds
#
# Revision: 0
# Processed by: cddbd v1.4PL0 Copyright (c) Steve Scherf et al.
# Submitted via: EasyCDDAExtractor 4.6.9.1
#
DISCID=40100c16
DTITLE=Nicole Leblanc - Les Froliqueux
DYEAR=1900
DGENRE=
TTITLE0=Notre Amour
TTITLE1=Laisse-Moi Vivre
TTITLE2=Le Party A Nikki
TTITLE3=Priere D'un Enfant
TTITLE4=Un Jour Tu Regrettera
TTITLE5=Des Pas Sur La Neige
TTITLE6=Pot Pourri
TTITLE7=Un Verre Une Bouteille
TTITLE8=Juste Une Autre Fois
TTITLE9=Acky Breaky Dance
TTITLE10=T'as Fait Le Choix
TTITLE11=Pecher Pecher
TTITLE12=L'ete Est Arriver
TTITLE13=notre amour
TTITLE14=Quelle Parti Na Tu Pas Compris
TTITLE15=Excuse-Moi
TTITLE16=Chanter C'est Pas Travailler
TTITLE17=Donne Z'y La Claque Joel
TTITLE18=Blue Roses
TTITLE19=laisse moi vivre
TTITLE20=La Derniere Chance
TTITLE21=La Dance De La limonade
EXTD=
EXTT0=
EXTT1=
EXTT2=
EXTT3=
EXTT4=
EXTT5=
EXTT6=
EXTT7=
EXTT8=
EXTT9=
EXTT10=
EXTT11=
EXTT12=
EXTT13=
EXTT14=
EXTT15=
EXTT16=
EXTT17=
EXTT18=
EXTT19=
EXTT20=
EXTT21=
PLAYORDER=
